{"title":"The Tin Drum 1979 720p BRRip x264 DC Criterion MP4 AAC-CC","uid":8823583,"size":3253089041,"categoryP":"video","categoryS":"hd___movies","magnet":"?xt=urn:btih:09c344d4041e87b357ab32561f9e40d02d4d6a2c&amp;dn=The+Tin+Drum+1979+720p+BRRip+x264+DC+Criterion+MP4+AAC-CC&amp;tr=udp%3A%2F%2Ftracker.openbittorrent.com%3A80&amp;tr=udp%3A%2F%2Fopen.demonii.com%3A1337&amp;tr=udp%3A%2F%2Ftracker.coppersurfer.tk%3A6969&amp;tr=udp%3A%2F%2Fexodus.desync.com%3A6969","seeders":22,"leechers":4,"uploader":"Caveman44","files":-1,"time":1376767592,"description":" &lt;a href=&quot;http://www.imdb.com/title/tt0078875&quot; rel=&quot;nofollow&quot; target=&quot;_NEW&quot;&gt;http://www.imdb.com/title/tt0078875&lt;/a&gt;\n\nIMDb title: Die Blechtrommel\n\nSource: The.Tin.Drum.1979.DC.CRITERION.720p.BluRay.x264-DON Thanks!\n\nSubs: English, Spanish.\n\nSample and Screens included.\n\nGeneral\nComplete name                            : The Tin Drum 1979 720p BRRip x264 DC Criterion MP4 AAC-CC.mp4\nFormat                                   : MPEG-4\nFormat profile                           : Base Media\nCodec ID                                 : isom\nFile size                                : 2.99 GiB\nDuration                                 : 2h 43mn\nOverall bit rate mode                    : Variable\nOverall bit rate                         : 2 621 Kbps\nEncoded date                             : UTC 2013-06-22 09:29:59\nTagged date                              : UTC 2013-06-22 09:29:59\nWriting application                      : Yamb 2.1.0.0 \n\nVideo\nID                                       : 1\nFormat                                   : AVC\nFormat/Info                              : Advanced Video Codec\nFormat profile                           : &lt;a class=&quot;__cf_email__&quot; href=&quot;/cdn-cgi/l/email-protection&quot; data-cfemail=&quot;7e361719163e324a504f&quot;&gt;[email&amp;#160;protected]&lt;/a&gt;&lt;script cf-hash='f9e31' type=&quot;text/javascript&quot;&gt;\n/* &lt;![CDATA[ */!function(){try{var t=&quot;currentScript&quot;in document?document.currentScript:function(){for(var t=document.getElementsByTagName(&quot;script&quot;),e=t.length;e--;)if(t[e].getAttribute(&quot;cf-hash&quot;))return t[e]}();if(t&amp;&amp;t.previousSibling){var e,r,n,i,c=t.previousSibling,a=c.getAttribute(&quot;data-cfemail&quot;);if(a){for(e=&quot;&quot;,r=parseInt(a.substr(0,2),16),n=2;a.length-n;n+=2)i=parseInt(a.substr(n,2),16)^r,e+=String.fromCharCode(i);e=document.createTextNode(e),c.parentNode.replaceChild(e,c)}}}catch(u){}}();/* ]]&gt; */&lt;/script&gt;\nFormat settings, CABAC                   : Yes\nFormat settings, ReFrames                : 5 frames\nCodec ID                                 : avc1\nCodec ID/Info                            : Advanced Video Coding\nDuration                                 : 2h 43mn\nBit rate                                 : 2 292 Kbps\nMaximum bit rate                         : 15.3 Mbps\nWidth                                    : 1 192 pixels\nHeight                                   : 720 pixels\nDisplay aspect ratio                     : 1.656\nFrame rate mode                          : Variable\nFrame rate                               : 23.976 fps\nMinimum frame rate                       : 23.974 fps\nMaximum frame rate                       : 23.981 fps\nColor space                              : YUV\nChroma subsampling                       : 4:2:0\nBit depth                                : 8 bits\nScan type                                : Progressive\nBits/(Pixel*Frame)                       : 0.111\nStream size                              : 2.62 GiB (88%)\nWriting library                          : x264 core 112\nEncoding settings                        : cabac=1 // deblock=1:0:0 / analyse=0x3:0x113 / me=hex / subme=7 / psy=1 / psy_rd=1.00:0.00 // me_range=16 / chroma_me=1 / trellis=1 / 8x8dct=1 / cqm=0 / deadzone=21,11 / fast_pskip=1 / chroma_qp_offset=-2 / threads=3 / sliced_threads=0 / nr=0 / decimate=1 / interlaced=0 / constrained_intra=0 / bframes=5 / b_pyramid=2 / b_adapt=2 / b_bias=0 / direct=1 / weightb=1 / open_gop=0 / weightp=2 / keyint=240 / keyint_min=23 / scenecut=40 / intra_refresh=0 / rc_lookahead=50 / rc=abr / mbtree=1 / bitrate=2292 / ratetol=1.0 / qcomp=0.60 / qpmin=3 / qpmax=51 / qpstep=4 / ip_ratio=1.40 / aq=1:1.00\nEncoded date                             : UTC 2013-06-22 23:09:33\nTagged date                              : UTC 2013-06-22 09:35:11\nColor primaries                          : BT.709\nTransfer characteristics                 : BT.709\nMatrix coefficients                      : BT.709\n\nAudio\nID                                       : 2\nFormat                                   : AAC\nFormat/Info                              : Advanced Audio Codec\nFormat profile                           : LC\nCodec ID                                 : 40\nDuration                                 : 2h 43mn\nBit rate mode                            : Variable\nBit rate                                 : 320 Kbps\nMaximum bit rate                         : 518 Kbps\nChannel(s)                               : 6 channels\nChannel positions                        : Front: L C R, Side: L R, LFE\nSampling rate                            : 48.0 KHz\nCompression mode                         : Lossy\nDelay relative to video                  : 83ms\nStream size                              : 374 MiB (12%)\nLanguage                                 : German\nEncoded date                             : UTC 2013-06-22 09:34:04\nTagged date                              : UTC 2013-06-22 09:35:11\n\nEnjoy...\n\nRequested by Dersu\n\nComing soon: Strangers on a Train, The Verdict, Harakiri and more.","torrent":{"xt":"urn:btih:09c344d4041e87b357ab32561f9e40d02d4d6a2c","amp;dn":"The+Tin+Drum+1979+720p+BRRip+x264+DC+Criterion+MP4+AAC-CC","amp;tr":["udp%3A%2F%2Ftracker.openbittorrent.com%3A80","udp%3A%2F%2Fopen.demonii.com%3A1337","udp%3A%2F%2Ftracker.coppersurfer.tk%3A6969","udp%3A%2F%2Fexodus.desync.com%3A6969"],"infoHash":"09c344d4041e87b357ab32561f9e40d02d4d6a2c","infoHashBuffer":{"type":"Buffer","data":[9,195,68,212,4,30,135,179,87,171,50,86,31,158,64,208,45,77,106,44]},"announce":[],"urlList":[]}}